<svg version="1" xmlns="http://www.w3.org/2000/svg" width="933.333" height="933.333" viewBox="0 0 700.000000 700.000000"><path d="M281.8.5c-.1.1-4.1.6-8.8.9-4.7.4-9.4.9-10.5 1.1-1.1.3-3.6.7-5.5 1-21.2 3.1-45.3 9.8-65 18.1-11.1 4.7-35 17.4-44.6 23.6-28 18.5-54.4 43.2-74.1 69.3-24.9 33.2-43 69.3-55.7 111.5-3.2 10.6-7.7 28.4-8.9 35.5-.3 1.6-1.2 6.6-2 11S4.9 283 4.5 286c-.3 3-1.1 8.5-1.6 12.2-3 22.1-3.3 81.6-.4 101.8.2 1.4.6 5 .9 8 .4 3 .9 6.6 1.1 8 1 6.7 1.8 11.7 2.1 13.5.2 1.1.6 3.2.9 4.8 9.2 50 29.2 99.2 56.3 138.2 33.2 47.8 78.7 84.2 132.7 106 14 5.7 43.5 14.2 55.1 15.9 2.2.4 4.9.8 6.1 1 5.3 1.1 8.3 1.4 27.3 3.5 8.1.9 53.2.7 59-.3 1.9-.3 5.8-.8 8.5-1.1 7.2-.8 9.6-1.3 22.5-4.1 45.8-10.3 85.9-35 115.3-71.1 5.2-6.5 6.1-7.1 7.3-5.2.3.6.7 16.7.8 35.8l.1 34.6H700v-675H487.5v34.7c-.1 37.8-.4 39.8-4.9 34.6-1.2-1.5-5-5.6-8.3-9-18.6-19.6-39.4-35.1-64-47.6-13.1-6.7-37.4-15.7-48.3-17.8-1.4-.3-4.1-.9-6-1.4C342.7 2.6 326.2.8 303.8.5c-11.9-.2-21.8-.2-22 0zM371 191.3c63.4 6.7 112.5 57.8 123.6 128.7 2.5 16.2 2.4 50.2-.1 63-.3 1.4-.8 3.8-1.1 5.5-3.4 19.2-12.4 41.9-23.1 58.5-15.9 24.6-36.6 41.7-65.8 54.1-3.7 1.6-19.3 5.8-23.7 6.4-24.8 3.3-39.5 2.5-66.3-4-4-1-18.2-6.9-24.5-10.3-14.1-7.6-29.2-20-39.6-32.7-15.1-18.4-28.1-48-32-73-.4-2.8-.8-5.5-.9-6-2.1-10.2-2.6-38.3-.9-53.5 6.2-57.6 35-102.2 79.9-123.9 22.2-10.7 49.6-15.4 74.5-12.8z"/></svg>